<svg xmlns="http://www.w3.org/2000/svg" viewBox="0 0 704 256" role="img" aria-labelledby="title">
  <title>Noir Detail</title>
  <g fill="none" stroke="#ee3d8d" stroke-width="5" stroke-linecap="round" stroke-linejoin="round">
    <path d="M88 126c-2-16 3-25 13-26 22-3 51-3 85-3 40-15 78-28 114-37 35-8 65-10 87-6 21 10 45 28 72 52 64-2 121-1 171 2 35 2 60 6 74 11" />
    <path d="M186 97c37 0 67 2 88 8l154-5" />
    <path d="M274 105l-11-34c30-7 60-11 91-12 10 0 18 2 26 7l67 49" />
    <path d="M88 126c-8 0-12 2-12 7 0 4 5 9 15 15" />
    <path d="M704 119l-10 38 26 3 9 6-58-1 6-41" />
  </g>
  <text
    x="95"
    y="207"
    fill="#f2f3f5"
    font-family="Maven Pro, Arial Black, Arial, sans-serif"
    font-size="59"
    font-weight="700"
    letter-spacing="3"
  >NOIR</text>
  <text
    x="335"
    y="207"
    fill="#ee3d8d"
    font-family="Maven Pro, Arial Black, Arial, sans-serif"
    font-size="59"
    font-weight="700"
    letter-spacing="3"
  >DETAIL</text>
  <path d="M105 225c120 2 248 3 384 2 53 0 94-1 124-2" stroke="#f2f3f5" stroke-width="2" stroke-linecap="round" opacity="0.5" />
</svg>
